<?xml version="1.0" encoding="UTF-8"?>
<!DOCTYPE svg PUBLIC "-//W3C//DTD SVG 1.1//EN" "http://www.w3.org/Graphics/SVG/1.1/DTD/svg11.dtd">
<!-- Creator: CorelDRAW 2017 -->
<svg xmlns="http://www.w3.org/2000/svg" xml:space="preserve" width="387.868mm" height="228.427mm" version="1.1" style="shape-rendering:geometricPrecision; text-rendering:geometricPrecision; image-rendering:optimizeQuality; fill-rule:evenodd; clip-rule:evenodd"
viewBox="0 0 38787 22843"
 xmlns:xlink="http://www.w3.org/1999/xlink">
 <defs>
  <style type="text/css">
   <![CDATA[
    .fil1 {fill:#1F1B20}
    .fil0 {fill:#1F1B20;fill-rule:nonzero}
   ]]>
  </style>
 </defs>
 <g id="Layer_x0020_1">
  <metadata id="CorelCorpID_0Corel-Layer"/>
  <g id="_2213036456496">
   <path class="fil0" d="M6412 11820c528,-377 1117,-690 1767,-940 650,-250 1317,-436 2001,-558 683,-123 1364,-174 2043,-156 679,19 1308,111 1888,276 580,165 1093,403 1541,714 448,311 789,698 1025,1159 226,471 328,952 304,1442 -24,490 -134,978 -332,1463 -198,485 -471,954 -820,1407 -349,453 -740,872 -1174,1258 -669,594 -1440,1133 -2312,1619 -872,485 -1789,855 -2750,1110 -961,254 -1942,370 -2941,346 -999,-24 -1956,-247 -2870,-672 -198,-94 -363,-189 -495,-283 -132,-94 -210,-170 -233,-226 -24,-57 14,-82 113,-78 99,5 285,59 558,163 622,255 1284,384 1987,389 702,5 1393,-68 2071,-219 -19,-320 12,-705 92,-1152 80,-448 191,-914 332,-1400 141,-485 309,-969 502,-1449 193,-481 391,-917 594,-1308 203,-391 401,-716 594,-976 193,-259 370,-412 530,-460 151,-38 306,-57 467,-57 160,0 299,16 417,49 118,33 203,80 254,141 52,61 45,125 -21,191 -179,207 -405,533 -679,976 -273,443 -547,950 -820,1520 -273,570 -528,1174 -764,1810 -236,636 -401,1256 -495,1859 698,-179 1407,-452 2128,-820 721,-368 1402,-789 2043,-1265 641,-476 1218,-987 1732,-1534 514,-547 910,-1089 1188,-1626 278,-537 417,-1049 417,-1534 0,-485 -193,-903 -580,-1251 -330,-311 -752,-526 -1265,-643 -514,-118 -1075,-160 -1683,-127 -608,33 -1242,132 -1902,297 -660,165 -1301,377 -1923,636 -622,259 -1207,556 -1753,891 -547,335 -1013,686 -1400,1053 -94,85 -165,64 -212,-64 -47,-127 -57,-304 -28,-530 28,-226 111,-474 247,-742 137,-269 342,-502 615,-700zm17080 -1103c47,141 -7,337 -163,587 -156,250 -375,530 -657,841 -283,311 -613,643 -990,997 -377,353 -773,707 -1188,1060 -415,353 -832,695 -1251,1025 -419,330 -804,622 -1152,877 -85,151 -151,278 -198,382 -47,94 -78,170 -92,226 -14,57 2,61 50,14 57,-47 170,-148 339,-304 170,-156 353,-320 551,-495 198,-174 394,-339 587,-495 193,-156 346,-257 460,-304 104,-47 203,-52 297,-14 94,38 179,97 255,177 75,80 137,165 184,255 47,90 80,163 99,219 19,66 -31,174 -148,325 -118,151 -245,309 -382,474 -137,165 -254,313 -353,445 -99,132 -120,212 -64,240 38,9 115,-12 233,-64 118,-52 254,-123 410,-212 156,-90 323,-193 502,-311 179,-118 349,-231 509,-339 160,-108 302,-207 424,-297 123,-90 207,-158 254,-205 160,-123 290,-153 389,-92 99,61 101,153 7,276 -47,57 -144,165 -290,325 -146,160 -320,332 -523,516 -203,184 -419,353 -650,509 -231,156 -450,262 -657,318 -273,66 -507,68 -700,7 -193,-61 -346,-153 -460,-276 -113,-123 -191,-262 -233,-417 -42,-156 -40,-299 7,-431 -141,132 -278,250 -410,353 -113,104 -226,203 -339,297 -113,94 -203,170 -269,226 -66,66 -158,120 -276,163 -118,42 -240,66 -368,71 -127,5 -240,-14 -339,-57 -99,-42 -158,-120 -177,-233 -19,-113 52,-363 212,-749 160,-386 384,-839 672,-1357 287,-518 620,-1072 997,-1661 377,-589 766,-1143 1166,-1661 401,-518 797,-966 1188,-1343 391,-377 742,-617 1053,-721 94,-38 214,-54 361,-49 146,5 290,38 431,99 141,61 276,156 403,283 127,127 224,295 290,502zm-551 -325c-38,-47 -125,-14 -262,99 -137,113 -306,276 -509,488 -203,212 -429,462 -679,749 -250,288 -502,587 -756,898 -594,726 -1263,1560 -2008,2503 113,-94 306,-266 580,-516 273,-250 575,-537 905,-863 330,-325 669,-669 1018,-1032 349,-363 657,-705 926,-1025 269,-321 481,-599 636,-834 156,-236 205,-391 148,-467zm2955 5585c132,-123 238,-153 318,-92 80,61 54,172 -78,332 -75,85 -179,210 -311,375 -132,165 -269,332 -410,502 -141,170 -283,321 -424,453 -141,132 -259,207 -353,226 -123,28 -295,9 -516,-57 -222,-66 -412,-165 -573,-297 -123,85 -240,167 -353,247 -113,80 -226,139 -339,177 -104,19 -231,14 -382,-14 -151,-28 -299,-82 -445,-163 -146,-80 -276,-177 -389,-290 -113,-113 -189,-245 -226,-396 -38,-160 2,-351 120,-573 118,-222 262,-431 431,-629 170,-198 346,-370 530,-516 184,-146 328,-224 431,-233 66,-9 148,-5 247,14 99,19 198,52 297,99 99,47 188,104 269,170 80,66 134,141 163,226 132,-113 245,-165 339,-156 75,19 156,42 240,71 85,28 163,61 233,99 71,38 130,85 177,141 47,57 66,118 57,184 0,75 -38,177 -113,304 -75,127 -156,257 -240,389 -85,132 -156,250 -212,353 -57,104 -66,170 -28,198 28,19 92,-2 191,-64 99,-61 219,-146 361,-255 141,-108 299,-233 474,-375 174,-141 346,-292 516,-452zm-3549 1357c104,57 233,26 389,-92 156,-118 304,-266 445,-445 141,-179 262,-363 361,-551 99,-188 148,-330 148,-424 -38,-85 -104,-108 -198,-71 -94,38 -198,108 -311,212 -113,104 -229,231 -346,382 -118,151 -219,295 -304,431 -85,137 -148,259 -191,368 -42,108 -40,172 7,191zm3860 -1951c57,-57 125,-78 205,-64 80,14 156,47 226,99 71,52 134,118 191,198 57,80 90,153 99,219 19,66 16,148 -7,247 -24,99 -57,198 -99,297 -42,99 -82,189 -120,269 -38,80 -61,139 -71,177 47,-28 156,-125 325,-290 170,-165 349,-342 537,-530 188,-189 365,-358 530,-509 165,-151 271,-236 318,-254 38,-19 104,-21 198,-7 94,14 189,42 283,85 94,42 179,94 255,156 75,61 123,130 141,205 19,75 -16,198 -106,368 -90,170 -186,346 -290,530 -104,184 -196,349 -276,495 -80,146 -97,233 -49,262 47,28 151,-9 311,-113 160,-104 337,-231 530,-382 193,-151 375,-304 544,-460 170,-156 292,-266 368,-332 75,-66 139,-101 191,-106 52,-5 92,12 120,49 28,38 40,85 35,141 -5,57 -26,118 -64,184 -47,66 -146,181 -297,346 -151,165 -318,339 -502,523 -184,184 -361,351 -530,502 -170,151 -302,240 -396,269 -141,57 -299,73 -474,49 -174,-24 -342,-66 -502,-127 -160,-61 -295,-141 -403,-240 -108,-99 -167,-200 -177,-304 -9,-38 7,-113 49,-226 42,-113 92,-226 148,-339 57,-113 111,-217 163,-311 52,-94 78,-146 78,-156 0,0 -68,73 -205,219 -137,146 -292,304 -467,474 -174,170 -349,325 -523,467 -174,141 -299,212 -375,212 -123,0 -250,-40 -382,-120 -132,-80 -212,-200 -240,-361 -9,-66 2,-181 35,-346 33,-165 80,-339 141,-523 61,-184 137,-363 226,-537 90,-174 191,-309 304,-403zm8215 523c132,-113 240,-134 325,-64 85,71 61,181 -71,332 -38,47 -141,144 -311,290 -170,146 -384,339 -643,580 -259,240 -556,521 -891,841 -335,321 -681,669 -1039,1046 -424,453 -773,898 -1046,1336 -273,438 -500,837 -679,1195 -179,358 -323,657 -431,898 -108,240 -205,379 -290,417 -85,38 -193,59 -325,64 -132,5 -254,-9 -368,-42 -113,-33 -193,-85 -240,-156 -47,-71 -24,-172 71,-304 66,-104 210,-344 431,-721 222,-377 483,-820 785,-1329 302,-509 629,-1053 983,-1633 353,-580 695,-1124 1025,-1633 -189,179 -372,339 -551,481 -179,141 -325,212 -438,212 -57,0 -132,-16 -226,-49 -94,-33 -189,-75 -283,-127 -94,-52 -181,-113 -262,-184 -80,-71 -130,-148 -148,-233 -9,-75 26,-205 106,-389 80,-184 184,-382 311,-594 127,-212 264,-419 410,-622 146,-203 280,-356 403,-460 57,-47 134,-61 233,-42 99,19 198,59 297,120 99,61 188,134 269,219 80,85 125,160 134,226 28,66 -19,184 -141,353 -123,170 -252,337 -389,502 -137,165 -247,306 -332,424 -85,118 -75,158 28,120 75,-28 172,-90 290,-184 118,-94 245,-205 382,-332 137,-127 276,-262 417,-403 141,-141 273,-269 396,-382 75,-66 134,-125 177,-177 42,-52 78,-82 106,-92 66,-9 141,0 226,28 85,28 165,66 240,113 75,47 137,106 184,177 47,71 71,139 71,205 0,75 -57,184 -170,325 -113,141 -257,318 -431,530 -174,212 -377,462 -608,749 -231,287 -464,615 -700,983 28,-28 134,-141 318,-339 184,-198 410,-431 679,-700 269,-269 556,-544 863,-827 306,-283 591,-533 855,-749zm4001 71c132,-123 238,-153 318,-92 80,61 54,172 -78,332 -75,85 -179,210 -311,375 -132,165 -269,332 -410,502 -141,170 -283,321 -424,453 -141,132 -259,207 -353,226 -123,28 -295,9 -516,-57 -222,-66 -412,-165 -573,-297 -123,85 -240,167 -353,247 -113,80 -226,139 -339,177 -104,19 -231,14 -382,-14 -151,-28 -299,-82 -445,-163 -146,-80 -276,-177 -389,-290 -113,-113 -189,-245 -226,-396 -38,-160 2,-351 120,-573 118,-222 262,-431 431,-629 170,-198 346,-370 530,-516 184,-146 328,-224 431,-233 66,-9 148,-5 247,14 99,19 198,52 297,99 99,47 188,104 269,170 80,66 134,141 163,226 132,-113 245,-165 339,-156 75,19 156,42 240,71 85,28 163,61 233,99 71,38 130,85 177,141 47,57 66,118 57,184 0,75 -38,177 -113,304 -75,127 -156,257 -240,389 -85,132 -156,250 -212,353 -57,104 -66,170 -28,198 28,19 92,-2 191,-64 99,-61 219,-146 361,-255 141,-108 299,-233 474,-375 174,-141 346,-292 516,-452zm-3549 1357c104,57 233,26 389,-92 156,-118 304,-266 445,-445 141,-179 262,-363 361,-551 99,-188 148,-330 148,-424 -38,-85 -104,-108 -198,-71 -94,38 -198,108 -311,212 -113,104 -229,231 -346,382 -118,151 -219,295 -304,431 -85,137 -148,259 -191,368 -42,108 -40,172 7,191z"/>
   <g>
    <path class="fil1" d="M5017 1993c0,644 161,1242 413,1837l155 324c710,1204 584,839 1169,720 841,-171 1880,-168 2135,880 280,1149 -947,664 -1107,664 -510,0 -685,118 -1107,442 -121,93 -215,178 -353,274l-384 280c-489,383 -964,867 -1622,922 119,-103 336,-122 465,-199 474,-284 883,-673 1332,-991 542,-384 1077,-971 1815,-799 228,53 586,156 799,-17 439,-357 -241,-1460 -944,-1460 -568,0 -790,74 -1298,214 -1286,353 -1274,-229 -2553,544 -79,48 -90,44 -158,100 -281,228 -526,532 -699,850 -248,456 -705,1305 -852,1767 -91,286 -191,486 -271,761 -40,136 -61,262 -110,406 -39,112 -106,293 -106,447 0,33 527,498 595,548 330,246 688,465 1064,632 140,62 244,127 400,190 212,85 635,252 928,252 0,-566 113,-1107 186,-1658 54,-412 379,-895 720,-1124 354,-237 943,-657 1330,-809 120,-47 123,-50 229,-103 334,-170 687,-367 1055,-493 500,-172 1076,-367 1385,-828 -263,0 -580,94 -811,148 251,-343 1657,-296 2019,-249 479,63 724,161 1167,271 531,132 1579,537 2020,819 41,26 93,64 134,87 63,34 105,44 178,80 90,45 237,172 307,172 163,0 295,-284 295,-479 0,-602 -1401,-1491 -1859,-1681 -1133,-471 -1389,-564 -2692,-847 -566,-123 -1055,-423 -1639,-406 -51,1 -160,22 -263,22 7,-5 20,-21 23,-14 4,7 18,-11 23,-14 14,-7 74,-37 74,-37 501,-214 1388,271 1813,380 155,40 276,46 443,73 556,91 415,-22 1032,-484 115,-86 179,-136 300,-216l1103 -483c427,-125 932,-206 1383,-203 370,2 693,24 550,-435 -283,-908 -2274,-503 -2913,-306 -495,152 -1039,355 -1471,631l-555 440c-218,185 -377,379 -734,409 0,-417 16,-778 37,-1143 12,-202 42,-320 89,-501 83,-324 112,-645 220,-960 109,-319 503,-1106 503,-1341 0,-460 -588,-318 -876,-28 -464,468 -690,943 -989,1519 -163,315 -347,839 -407,1253 -45,316 36,837 -177,1077 -156,176 -497,520 -713,341l-400 -451c-539,-690 -864,-1396 -1067,-2252 -62,-260 -141,-419 -444,-302 -171,66 -310,317 -310,540z"/>
    <path class="fil1" d="M2252 19029c809,0 1413,-394 1855,-985 258,-344 298,-541 374,-1064 43,-294 4,-699 34,-1005 8,-80 24,-144 24,-266 -207,-48 -434,-73 -655,-119 -411,-86 -1287,-454 -1600,-686 -875,-649 -1506,-1491 -1543,-1518l-403 1662c-223,1009 -587,1801 -82,2769 343,658 1119,1211 1997,1211z"/>
    <path class="fil1" d="M4538 15415l0 -885c-657,0 -1515,-338 -2102,-627 -399,-196 -1416,-970 -1585,-1143 -9,414 -175,254 78,585 129,168 253,296 390,458l407 441c686,660 1568,1073 2513,1251 101,19 300,92 300,-81z"/>
    <path class="fil1" d="M4649 12539l37 -590c0,-133 -102,-100 -406,-184 -1105,-307 -2377,-1201 -2692,-1512 -15,175 -138,449 -132,554 8,139 176,216 343,341 295,220 479,377 819,582 450,271 1585,772 2030,809z"/>
    <path class="fil1" d="M1035 12487c461,582 1016,987 1696,1327 440,220 1233,520 1714,543 162,7 128,-47 132,-208 5,-191 31,-218 34,-372 -2007,-399 -2861,-999 -3503,-1586 -24,104 -74,187 -74,295z"/>
    <path class="fil1" d="M1253 11443l690 564c542,409 1019,600 1684,823 242,81 772,235 1055,235 31,-375 165,-328 -384,-464l-939 -315c-397,-150 -1295,-684 -1633,-948 -127,-99 -232,-213 -363,-301 -34,145 -79,270 -111,406z"/>
    <g>
     <path class="fil1" d="M1535 11905c90,-4 166,71 170,166 4,96 -65,176 -155,180 -90,4 -166,-71 -170,-166 -4,-96 65,-176 155,-180z"/>
     <path class="fil1" d="M1907 12162c90,-4 166,71 170,166 4,96 -65,176 -155,180 -90,4 -166,-71 -170,-166 -4,-96 65,-176 155,-180z"/>
     <path class="fil1" d="M2279 12419c90,-4 166,71 170,166 4,96 -65,176 -155,180 -90,4 -166,-71 -170,-166 -4,-96 65,-176 155,-180z"/>
     <path class="fil1" d="M2648 12630c90,-4 166,71 170,166 4,96 -65,176 -155,180 -90,4 -166,-71 -170,-166 -4,-96 65,-176 155,-180z"/>
     <path class="fil1" d="M3063 12816c90,-4 166,71 170,166 4,96 -65,176 -155,180 -90,4 -166,-71 -170,-166 -4,-96 65,-176 155,-180z"/>
     <path class="fil1" d="M3477 12980c90,-4 166,71 170,166 4,96 -65,176 -155,180 -90,4 -166,-71 -170,-166 -4,-96 65,-176 155,-180z"/>
     <path class="fil1" d="M3888 13098c90,-4 166,71 170,166 4,96 -65,176 -155,180 -90,4 -166,-71 -170,-166 -4,-96 65,-176 155,-180z"/>
     <path class="fil1" d="M4346 13237c90,-4 166,71 170,166 4,96 -65,176 -155,180 -90,4 -166,-71 -170,-166 -4,-96 65,-176 155,-180z"/>
    </g>
   </g>
  </g>
 </g>
</svg>
