<?xml version="1.0" encoding="UTF-8"?>
<!DOCTYPE svg PUBLIC "-//W3C//DTD SVG 1.1//EN" "http://www.w3.org/Graphics/SVG/1.1/DTD/svg11.dtd">
<!-- Creator: CorelDRAW 2017 -->
<svg xmlns="http://www.w3.org/2000/svg" xml:space="preserve" width="265.295mm" height="268.449mm" version="1.1" style="shape-rendering:geometricPrecision; text-rendering:geometricPrecision; image-rendering:optimizeQuality; fill-rule:evenodd; clip-rule:evenodd"
viewBox="0 0 25336 25637"
 xmlns:xlink="http://www.w3.org/1999/xlink">
 <defs>
  <style type="text/css">
   <![CDATA[
    .fil0 {fill:#2B2A29}
   ]]>
  </style>
 </defs>
 <g id="Layer_x0020_1">
  <metadata id="CorelCorpID_0Corel-Layer"/>
  <g id="_2213038964704">
   <path class="fil0" d="M13694 23336c1694,-551 2475,-1022 3783,-2033 706,-546 1265,-1246 1806,-1947 520,-782 -1133,589 -1302,701 -1471,972 -3716,1904 -5508,1904l-393 -19 -6 -5893c3713,840 8218,-917 8422,-5198 177,-3712 -2313,-6924 -5672,-8165 -4391,-1621 -8807,-368 -12068,2812 -771,751 -1355,1886 -1832,2848 -259,522 -425,1188 -583,1780 -679,2532 -307,5493 833,7811 995,2023 2619,3748 4632,4721 2499,1208 5164,1565 7890,678zm-4070 -1612l27 -13317c1,-350 29,-626 69,-724 960,-164 1613,715 1938,1412 729,1558 225,4613 451,5254 548,174 1497,169 2111,151 2010,-62 3510,-989 3843,-3153 97,-631 63,-881 -12,-1497 -241,-1979 -1324,-3185 -2488,-4045 -686,-507 -1356,-803 -2156,-1074 -3672,-1248 -6845,406 -9004,3081 -1523,1887 -2160,5224 -1492,7671 512,1876 1312,3001 2437,4036 788,725 2005,1472 3035,1848 416,152 839,222 1242,359z"/>
   <path class="fil0" d="M12517 0c7079,0 12818,5739 12818,12818 0,7080 -5739,12818 -12818,12818 -2813,0 -5413,-907 -7527,-2442 1703,945 3662,1484 5747,1484 6550,0 11860,-5310 11860,-11860 0,-6550 -5310,-11860 -11860,-11860 -2085,0 -4044,539 -5746,1484 2114,-1536 4714,-2442 7526,-2442z"/>
  </g>
 </g>
</svg>
